# xmcd CD database file
#
# Track frame offsets:
#	150
#	23187
#	46480
#	73467
#
# Disc length: 1216 seconds
#
# Revision: 0
# Processed by: cddbd v1.5.1PL0 Copyright (c) Steve Scherf et al.
# Submitted via: CDex 1.51
#
DISCID=3704be04
DTITLE=ユースケ・サンタマリア - ピッツバーグ
DYEAR=1999
DGENRE=Rock
TTITLE0=青春ヨーデルど真中
TTITLE1=よりによってお前と
TTITLE2=まさかね
TTITLE3=鶴亀ワルツ
EXTD=YEAR: 1999
EXTT0=
EXTT1=
EXTT2=
EXTT3=
PLAYORDER=
